<?xml version="1.0" encoding="UTF-8" standalone="no"?>
<!-- Created with Inkscape (http://www.inkscape.org/) -->

<svg
   xmlns:dc="http://purl.org/dc/elements/1.1/"
   xmlns:cc="http://creativecommons.org/ns#"
   xmlns:rdf="http://www.w3.org/1999/02/22-rdf-syntax-ns#"
   xmlns:svg="http://www.w3.org/2000/svg"
   xmlns="http://www.w3.org/2000/svg"
   xmlns:sodipodi="http://sodipodi.sourceforge.net/DTD/sodipodi-0.dtd"
   xmlns:inkscape="http://www.inkscape.org/namespaces/inkscape"
   width="210mm"
   height="297mm"
   viewBox="0 0 744.09448819 1052.3622047"
   id="svg2"
   version="1.1"
   inkscape:version="0.92.3 (2405546, 2018-03-11)"
   sodipodi:docname="matriz.svg">
  <defs
     id="defs4" />
  <sodipodi:namedview
     id="base"
     pagecolor="#ffffff"
     bordercolor="#666666"
     borderopacity="1.0"
     inkscape:pageopacity="0.0"
     inkscape:pageshadow="2"
     inkscape:zoom="0.5996434"
     inkscape:cx="453.15043"
     inkscape:cy="410.92938"
     inkscape:document-units="px"
     inkscape:current-layer="layer1"
     showgrid="false"
     inkscape:window-width="1920"
     inkscape:window-height="1017"
     inkscape:window-x="1912"
     inkscape:window-y="-8"
     inkscape:window-maximized="1"
     showguides="false">
    <sodipodi:guide
       position="295.17544,596.1877"
       orientation="0,1"
       id="guide4756"
       inkscape:locked="false" />
  </sodipodi:namedview>
  <metadata
     id="metadata7">
    <rdf:RDF>
      <cc:Work
         rdf:about="">
        <dc:format>image/svg+xml</dc:format>
        <dc:type
           rdf:resource="http://purl.org/dc/dcmitype/StillImage" />
        <dc:title />
      </cc:Work>
    </rdf:RDF>
  </metadata>
  <g
     inkscape:label="Camada 1"
     inkscape:groupmode="layer"
     id="layer1">
    <text
       xml:space="preserve"
       style="font-style:normal;font-weight:normal;line-height:0%;font-family:sans-serif;text-align:center;letter-spacing:0px;word-spacing:0px;text-anchor:middle;fill:#000000;fill-opacity:1;stroke:none;stroke-width:1px;stroke-linecap:butt;stroke-linejoin:miter;stroke-opacity:1"
       x="340"
       y="449.50507"
       id="text4155"><tspan
         sodipodi:role="line"
         id="tspan4157"
         x="349.94873"
         y="449.50507"
         style="font-size:62.5px;line-height:0"> </tspan></text>
    <text
       xml:space="preserve"
       style="font-style:normal;font-variant:normal;font-weight:normal;font-stretch:normal;line-height:0%;font-family:moderna;-inkscape-font-specification:moderna;text-align:center;letter-spacing:0px;word-spacing:0px;text-anchor:middle;fill:#000000;fill-opacity:1;stroke:none;stroke-width:1px;stroke-linecap:butt;stroke-linejoin:miter;stroke-opacity:1"
       x="195.81064"
       y="406.96002"
       id="text4256"><tspan
         sodipodi:role="line"
         id="tspan4258"
         x="205.75937"
         y="406.96002"
         style="font-style:normal;font-variant:normal;font-weight:normal;font-stretch:normal;font-size:62.5px;line-height:0;font-family:moderna;-inkscape-font-specification:moderna"> </tspan></text>
    <text
       xml:space="preserve"
       style="font-style:normal;font-variant:normal;font-weight:normal;font-stretch:normal;line-height:0%;font-family:moderna;-inkscape-font-specification:moderna;text-align:center;letter-spacing:0px;word-spacing:0px;text-anchor:middle;fill:#000000;fill-opacity:1;stroke:none;stroke-width:1px;stroke-linecap:butt;stroke-linejoin:miter;stroke-opacity:1"
       x="88.887726"
       y="392.78952"
       id="text4268"><tspan
         sodipodi:role="line"
         id="tspan4270"
         x="98.836456"
         y="392.78952"
         style="font-size:62.5px;line-height:0"> </tspan></text>
    <text
       xml:space="preserve"
       style="font-style:normal;font-weight:normal;line-height:0%;font-family:sans-serif;text-align:center;letter-spacing:0px;word-spacing:0px;text-anchor:middle;fill:#000000;fill-opacity:1;stroke:none;stroke-width:1px;stroke-linecap:butt;stroke-linejoin:miter;stroke-opacity:1"
       x="140.41684"
       y="359.29559"
       id="text4272"><tspan
         sodipodi:role="line"
         id="tspan4274"
         x="150.36557"
         y="359.29559"
         style="font-size:62.5px;line-height:0"> </tspan></text>
    <text
       xml:space="preserve"
       style="font-style:normal;font-weight:normal;line-height:0%;font-family:sans-serif;text-align:center;letter-spacing:0px;word-spacing:0px;text-anchor:middle;fill:#000000;fill-opacity:1;stroke:none;stroke-width:1px;stroke-linecap:butt;stroke-linejoin:miter;stroke-opacity:1"
       x="181.15547"
       y="396.65585"
       id="text4276"><tspan
         sodipodi:role="line"
         id="tspan4278"
         x="181.15547"
         y="396.65585"
         style="font-style:normal;font-variant:normal;font-weight:bold;font-stretch:normal;font-size:77.34513092px;line-height:0;font-family:Candara;-inkscape-font-specification:'Candara Bold'">dealwish</tspan></text>
    <g
       id="g4162"
       transform="translate(432.78724,-152.26781)" />
    <g
       id="g4164"
       transform="translate(-364.62582,-11.850966)">
      <g
         id="g4166">
        <path
           style="fill:#e0c3d3"
           inkscape:connector-curvature="0"
           d="M 193.8,167.46 307.32,53.57 C 283.863,30.21 257.12,14.843 225.127,6.34 l -41.313,155.45 c 3.15,0.84 7.66,3.37 9.98,5.67 z"
           id="path4168" />
        <path
           style="fill:#e0a0c3"
           inkscape:connector-curvature="0"
           d="M 209.95,151.26 307.317,53.572 C 283.86,30.212 257.117,14.845 225.124,6.342 l -35.43,133.29 c 7.71,1.86 14.76,5.91 20.25,11.63 z"
           id="path4170" />
        <path
           style="fill:#e080b5"
           inkscape:connector-curvature="0"
           d="M 225.94,135.21 307.315,53.567 C 283.858,30.207 257.115,14.84 225.122,6.337 l -29.61,111.4 c 11.55,2.89 22.11,8.95 30.42,17.47 z"
           id="path4172" />
        <path
           style="fill:#e061a7"
           inkscape:connector-curvature="0"
           d="m 241.95,119.15 65.369,-65.585 c -23.457,-23.36 -50.2,-38.727 -82.193,-47.23 l -23.784,89.491 c 15.38,3.919 29.46,12.004 40.6,23.324 z"
           id="path4174" />
        <path
           style="fill:#e04198"
           inkscape:connector-curvature="0"
           d="M 257.95,103.1 307.321,53.567 C 283.864,30.207 257.121,14.84 225.128,6.337 l -17.962,67.589 c 19.22,4.944 36.82,15.052 50.78,29.174 z"
           id="path4176" />
        <path
           style="fill:#e0228b"
           inkscape:connector-curvature="0"
           d="M 273.95,87.05 307.323,53.568 C 283.866,30.208 257.123,14.841 225.13,6.338 l -12.142,45.687 c 23.07,5.968 44.18,18.099 60.96,35.025 z"
           id="path4178" />
        <path
           style="fill:#e10071"
           inkscape:connector-curvature="0"
           d="M 289.94,70.999 307.315,53.568 C 283.858,30.208 257.115,14.84 225.122,6.337 l -6.321,23.784 c 26.91,6.994 51.54,21.148 71.13,40.878 z"
           id="path4180" />
      </g>
      <g
         id="g4182">
        <path
           style="fill:#ffd9d9"
           inkscape:connector-curvature="0"
           d="m 174.73,162.13 c 2.934,-0.792 6.094,-0.876 8.876,-0.292 l 41,-155.36 c -31.994,-8.502 -61.625,-8.332 -93.483,0.274 l 42.101,155.85 c -0.01,-0.02 1.13,-0.37 1.5,-0.47 z"
           id="path4184" />
        <path
           style="fill:#ffb6b6"
           inkscape:connector-curvature="0"
           d="m 168.93,139.99 c 6.926,-1.871 14.036,-1.906 20.556,-0.349 l 35.12,-133.16 c -31.994,-8.502 -61.625,-8.332 -93.483,0.274 l 36.127,133.73 c 0.95,-0.27 1.19,-0.36 1.67,-0.49 z"
           id="path4186" />
        <path
           style="fill:#ff8f8f"
           inkscape:connector-curvature="0"
           d="m 163.03,118.12 c 10.904,-2.946 22.03,-2.917 32.267,-0.373 l 29.31,-111.27 c -31.994,-8.502 -61.625,-8.332 -93.483,0.274 l 30.218,111.86 c 0.96,-0.27 1.19,-0.36 1.68,-0.49 z"
           id="path4188" />
        <path
           style="fill:#ff6e6e"
           inkscape:connector-curvature="0"
           d="m 157.12,96.243 c 14.884,-4.021 30.029,-3.944 43.982,-0.413 L 224.612,6.476 C 192.618,-2.026 162.987,-1.856 131.129,6.75 l 24.304,89.968 c 0.96,-0.268 1.2,-0.344 1.69,-0.475 z"
           id="path4190" />
        <path
           style="fill:#ff4848"
           inkscape:connector-curvature="0"
           d="m 151.21,74.369 c 18.863,-5.096 38.024,-4.964 55.695,-0.446 L 224.615,6.476 C 192.621,-2.026 162.99,-1.856 131.132,6.75 l 18.395,68.094 c 0.96,-0.267 1.2,-0.344 1.69,-0.475 z"
           id="path4192" />
        <path
           style="fill:#ff2424"
           inkscape:connector-curvature="0"
           d="m 145.06,52.56 c 22.919,-6.191 46.298,-6.016 67.745,-0.456 L 224.615,6.476 C 192.621,-2.026 162.99,-1.856 131.132,6.75 l 12.484,46.214 c 0.97,-0.263 1.13,-0.317 1.45,-0.404 z"
           id="path4194" />
        <path
           style="fill:#ff0000"
           inkscape:connector-curvature="0"
           d="m 139.15,30.685 c 26.906,-7.269 54.312,-7.036 79.48,-0.483 L 224.608,6.476 C 192.614,-2.026 162.983,-1.856 131.125,6.75 l 6.575,24.34 c 0.97,-0.262 1.13,-0.318 1.45,-0.405 z"
           id="path4196" />
      </g>
      <g
         id="g4198">
        <path
           style="fill:#ffebd9"
           inkscape:connector-curvature="0"
           d="M 173.23,162.6 131.13,6.75 C 99.272,15.356 74.306,29.935 50.945,53.39 l 114.57,114.36 c 2.08,-2.33 4.86,-4.17 7.71,-5.15 z"
           id="path4200" />
        <path
           style="fill:#ffd7b3"
           inkscape:connector-curvature="0"
           d="M 167.25,140.48 131.13,6.75 C 99.272,15.356 74.306,29.935 50.945,53.39 l 98.442,98.288 c 4.77,-5.09 11.17,-9.11 17.86,-11.2 z"
           id="path4202" />
        <path
           style="fill:#ffc48f"
           inkscape:connector-curvature="0"
           d="M 161.34,118.61 131.13,6.75 C 99.272,15.356 74.306,29.935 50.945,53.39 l 82.386,82.283 c 7.49,-7.82 17.47,-13.93 28.01,-17.06 z"
           id="path4204" />
        <path
           style="fill:#ffb26c"
           inkscape:connector-curvature="0"
           d="M 155.43,96.719 131.13,6.75 C 99.272,15.356 74.306,29.935 50.945,53.39 l 66.336,66.282 c 10.2,-10.55 23.74,-18.78 38.15,-22.951 z"
           id="path4206" />
        <path
           style="fill:#ff9f48"
           inkscape:connector-curvature="0"
           d="M 149.52,74.845 131.13,6.75 C 99.272,15.356 74.306,29.935 50.945,53.39 l 50.287,50.283 c 12.91,-13.273 30.02,-23.612 48.29,-28.825 z"
           id="path4208" />
        <path
           style="fill:#ff8c24"
           inkscape:connector-curvature="0"
           d="M 143.61,52.964 131.13,6.75 C 99.272,15.356 74.306,29.935 50.945,53.39 l 34.05,34.204 C 100.7,71.566 120.49,59.396 143.61,52.964 Z"
           id="path4210" />
        <path
           style="fill:#ff8000"
           inkscape:connector-curvature="0"
           d="M 137.7,31.091 131.125,6.751 C 99.267,15.357 74.301,29.936 50.94,53.391 L 68.93,71.607 C 87.365,52.845 110.725,38.566 137.705,31.091 Z"
           id="path4212" />
      </g>
      <g
         id="g4214">
        <path
           style="fill:#fffed9"
           inkscape:connector-curvature="0"
           d="M 166.24,167.56 51.42,53.26 C 28.06,76.717 14.536,101.774 6.034,133.767 l 155.98,41.453 c 0.85,-3.15 1.92,-5.35 4.23,-7.66 z"
           id="path4216" />
        <path
           style="fill:#fffdb3"
           inkscape:connector-curvature="0"
           d="M 149.96,151.35 51.425,53.26 C 28.065,76.717 14.541,101.774 6.039,133.767 l 133.85,35.573 c 1.8,-6.74 5.26,-12.94 10.07,-17.99 z"
           id="path4218" />
        <path
           style="fill:#fffc8f"
           inkscape:connector-curvature="0"
           d="M 133.9,135.37 51.425,53.26 C 28.065,76.717 14.541,101.774 6.039,133.767 l 111.95,29.753 c 2.82,-10.58 8.31,-20.29 15.91,-28.15 z"
           id="path4220" />
        <path
           style="fill:#fffb6c"
           inkscape:connector-curvature="0"
           d="M 117.84,119.37 51.425,53.26 C 28.065,76.717 14.541,101.774 6.039,133.767 l 90.037,23.929 c 3.845,-14.42 11.364,-27.64 21.764,-38.33 z"
           id="path4222" />
        <path
           style="fill:#fffa48"
           inkscape:connector-curvature="0"
           d="M 101.78,103.39 51.425,53.26 C 28.065,76.717 14.541,101.774 6.039,133.767 l 68.136,18.108 c 4.869,-18.26 14.403,-34.99 27.605,-48.49 z"
           id="path4224" />
        <path
           style="fill:#fff924"
           inkscape:connector-curvature="0"
           d="M 85.716,87.398 51.425,53.26 C 28.065,76.717 14.541,101.774 6.039,133.767 l 46.235,12.288 c 5.893,-22.09 17.445,-42.34 33.442,-58.662 z"
           id="path4226" />
        <path
           style="fill:#ffff00"
           inkscape:connector-curvature="0"
           d="M 69.657,71.411 51.425,53.26 C 28.065,76.717 14.541,101.774 6.039,133.767 l 24.334,6.468 C 37.29,114.305 50.861,90.541 69.657,71.406 Z"
           id="path4228" />
      </g>
      <g
         id="g4230">
        <path
           style="fill:#ebffd9"
           inkscape:connector-curvature="0"
           d="m 162.13,185.27 c -0.792,-2.934 -0.647,-7.06 -0.061,-9.842 L 6.179,134.278 c -8.503,31.994 -8.034,62.733 0.572,94.591 l 155.85,-42.1 c -0.02,0.01 -0.37,-1.13 -0.47,-1.5 z"
           id="path4232" />
        <path
           style="fill:#d8ffb6"
           inkscape:connector-curvature="0"
           d="m 139.99,191.07 c -1.963,-7.268 -1.891,-14.725 -0.095,-21.517 L 6.175,134.283 c -8.503,31.994 -8.034,62.733 0.572,94.591 l 133.73,-36.127 c -0.27,-0.96 -0.36,-1.19 -0.49,-1.67 z"
           id="path4234" />
        <path
           style="fill:#c5ff92"
           inkscape:connector-curvature="0"
           d="m 118.12,196.98 c -3.039,-11.249 -2.905,-22.722 -0.121,-33.231 L 6.179,134.279 c -8.503,31.994 -8.034,62.733 0.572,94.591 l 111.86,-30.218 c -0.27,-0.96 -0.36,-1.19 -0.49,-1.67 z"
           id="path4236" />
        <path
           style="fill:#b1ff6c"
           inkscape:connector-curvature="0"
           d="M 96.244,202.89 C 92.13,187.662 92.302,172.165 96.075,157.941 L 6.178,134.281 c -8.503,31.994 -8.034,62.733 0.572,94.591 l 89.968,-24.304 c -0.268,-0.97 -0.343,-1.2 -0.474,-1.68 z"
           id="path4238" />
        <path
           style="fill:#9dff48"
           inkscape:connector-curvature="0"
           d="M 74.371,208.8 C 69.182,189.592 69.409,170.076 74.17,152.134 L 6.178,134.284 c -8.503,31.994 -8.034,62.733 0.572,94.591 L 74.844,210.48 c -0.267,-0.96 -0.343,-1.2 -0.473,-1.68 z"
           id="path4240" />
        <path
           style="fill:#8aff24"
           inkscape:connector-curvature="0"
           d="m 52.563,214.95 c -6.285,-23.265 -6.011,-46.996 -0.205,-68.714 l -46.18,-11.96 c -8.503,31.994 -8.034,62.733 0.572,94.591 l 46.214,-12.484 c -0.263,-0.97 -0.315,-1.12 -0.401,-1.44 z"
           id="path4242" />
        <path
           style="fill:#71ff00"
           inkscape:connector-curvature="0"
           d="m 30.688,220.86 c -7.362,-27.251 -7.029,-55.011 -0.229,-80.452 l -24.28,-6.125 c -8.503,31.994 -8.034,62.733 0.572,94.591 l 24.34,-6.575 c -0.264,-0.97 -0.317,-1.12 -0.403,-1.44 z"
           id="path4244" />
      </g>
      <g
         id="g4246">
        <path
           style="fill:#dcffdc"
           inkscape:connector-curvature="0"
           d="M 162.6,186.77 6.75,228.87 c 8.606,31.857 23.185,56.824 46.641,80.185 l 114.36,-114.57 c -2.33,-2.09 -4.17,-4.87 -5.15,-7.72 z"
           id="path4248" />
        <path
           style="fill:#b6ffb6"
           inkscape:connector-curvature="0"
           d="M 140.48,192.75 6.75,228.87 c 8.606,31.857 23.185,56.824 46.641,80.185 l 98.286,-98.442 c -5.1,-4.78 -9.11,-11.18 -11.2,-17.87 z"
           id="path4250" />
        <path
           style="fill:#92ff92"
           inkscape:connector-curvature="0"
           d="M 118.61,198.66 6.75,228.87 c 8.606,31.857 23.185,56.824 46.641,80.185 l 82.281,-82.387 c -7.82,-7.49 -13.93,-17.47 -17.06,-28.01 z"
           id="path4252" />
        <path
           style="fill:#6eff6e"
           inkscape:connector-curvature="0"
           d="M 96.719,204.57 6.75,228.87 c 8.606,31.857 23.185,56.824 46.641,80.185 l 66.28,-66.336 c -10.55,-10.2 -18.78,-23.74 -22.951,-38.15 z"
           id="path4254" />
        <path
           style="fill:#4aff4a"
           inkscape:connector-curvature="0"
           d="M 74.845,210.48 6.75,228.87 c 8.606,31.857 23.185,56.824 46.641,80.185 l 50.281,-50.287 c -13.274,-12.92 -23.614,-30.02 -28.825,-48.29 z"
           id="path4256" />
        <path
           style="fill:#27ff27"
           inkscape:connector-curvature="0"
           d="M 52.964,216.39 6.75,228.87 c 8.606,31.857 23.185,56.824 46.641,80.185 l 34.202,-34.049 c -16.028,-15.71 -28.198,-35.5 -34.629,-58.62 z"
           id="path4258" />
        <path
           style="fill:#00ff00"
           inkscape:connector-curvature="0"
           d="m 31.091,222.3 -24.34,6.575 c 8.606,31.857 23.185,56.824 46.641,80.185 l 18.214,-17.989 c -18.763,-18.43 -33.043,-41.79 -40.515,-68.77 z"
           id="path4260" />
      </g>
      <g
         id="g4262">
        <path
           style="fill:#dcffed"
           inkscape:connector-curvature="0"
           d="M 167.59,193.87 53.28,308.65 c 23.455,23.359 47.388,37.112 79.381,45.616 l 41.606,-156.55 c -3.16,-0.85 -4.37,-1.55 -6.68,-3.85 z"
           id="path4264" />
        <path
           style="fill:#b6ffd9"
           inkscape:connector-curvature="0"
           d="m 151.42,210.11 -98.14,98.54 c 23.455,23.359 47.388,37.112 79.381,45.616 l 35.721,-134.41 c -6.34,-1.86 -12.17,-5.21 -16.96,-9.75 z"
           id="path4266" />
        <path
           style="fill:#92ffc6"
           inkscape:connector-curvature="0"
           d="m 135.43,226.16 -82.15,82.49 c 23.455,23.359 47.388,37.112 79.381,45.616 l 29.9,-112.51 c -10.18,-2.89 -19.52,-8.26 -27.13,-15.6 z"
           id="path4268" />
        <path
           style="fill:#6effb3"
           inkscape:connector-curvature="0"
           d="m 119.43,242.22 -66.15,66.43 c 23.456,23.359 47.388,37.112 79.381,45.616 l 24.079,-90.603 c -14.02,-3.92 -26.87,-11.31 -37.31,-21.45 z"
           id="path4270" />
        <path
           style="fill:#4affa0"
           inkscape:connector-curvature="0"
           d="m 103.44,258.28 -50.16,50.37 c 23.455,23.359 47.388,37.112 79.381,45.616 l 18.258,-68.701 c -17.86,-4.95 -34.22,-14.35 -47.48,-27.29 z"
           id="path4272" />
        <path
           style="fill:#27ff8d"
           inkscape:connector-curvature="0"
           d="m 87.451,274.34 -34.17,34.31 c 23.455,23.359 47.388,37.112 79.381,45.616 L 145.1,307.465 c -21.69,-5.97 -41.58,-17.4 -57.649,-33.13 z"
           id="path4274" />
        <path
           style="fill:#00ff80"
           inkscape:connector-curvature="0"
           d="M 71.459,290.39 53.28,308.65 c 23.455,23.359 47.388,37.112 79.381,45.616 l 6.618,-24.9 c -25.53,-6.99 -48.93,-20.44 -67.821,-38.98 z"
           id="path4276" />
      </g>
      <g
         id="g4278">
        <path
           style="fill:#dcfffe"
           inkscape:connector-curvature="0"
           d="m 173.85,197.82 -41.812,156.61 c 31.993,8.501 61.11,8.47 92.969,-0.136 l -42.101,-155.85 c -2.95,0.59 -6.08,0.35 -9.06,-0.62 z"
           id="path4280" />
        <path
           style="fill:#b6fffd"
           inkscape:connector-curvature="0"
           d="m 167.98,219.87 -35.941,134.56 c 31.993,8.501 61.11,8.47 92.969,-0.136 l -36.127,-133.73 c -6.82,1.57 -14.22,1.29 -20.9,-0.69 z"
           id="path4282" />
        <path
           style="fill:#92fffc"
           inkscape:connector-curvature="0"
           d="m 162.15,241.77 -30.107,112.65 c 31.993,8.501 61.11,8.47 92.969,-0.136 l -30.219,-111.86 c -10.69,2.62 -22.24,2.33 -32.64,-0.65 z"
           id="path4284" />
        <path
           style="fill:#6efffb"
           inkscape:connector-curvature="0"
           d="m 156.32,263.68 -24.276,90.754 c 31.993,8.501 61.11,8.47 92.969,-0.136 l -24.305,-89.969 c -14.54,3.66 -30.26,3.33 -44.38,-0.64 z"
           id="path4286" />
        <path
           style="fill:#4afffa"
           inkscape:connector-curvature="0"
           d="m 150.49,285.57 -18.446,68.856 c 31.993,8.501 61.11,8.47 92.969,-0.136 l -18.396,-68.095 c -18.41,4.7 -38.28,4.34 -56.12,-0.63 z"
           id="path4288" />
        <path
           style="fill:#27fff9"
           inkscape:connector-curvature="0"
           d="m 144.7,307.61 -12.655,46.815 c 31.993,8.501 61.11,8.47 92.969,-0.136 L 212.53,308.074 c -23.22,6.1 -46.19,5.49 -67.83,-0.45 z"
           id="path4290" />
        <path
           style="fill:#00ffff"
           inkscape:connector-curvature="0"
           d="m 138.88,329.52 -6.839,24.913 c 31.994,8.501 61.11,8.47 92.969,-0.136 l -6.575,-24.341 c -27.08,7.13 -54.2,6.49 -79.56,-0.43 z"
           id="path4292" />
      </g>
      <g
         id="g4294">
        <path
           style="fill:#dcefff"
           inkscape:connector-curvature="0"
           d="m 192.47,193.82 c -2.109,1.906 -5.088,3.48 -8.022,4.273 -0.373,0.101 -1.527,0.377 -1.533,0.354 l 42.101,155.85 c 31.857,-8.606 57.647,-23.407 81.009,-46.862 l -113.56,-113.61 z"
           id="path4296" />
        <path
           style="fill:#b6deff"
           inkscape:connector-curvature="0"
           d="m 208.69,210.01 c -4.857,4.652 -11.156,8.255 -18.107,10.133 -0.485,0.131 -0.729,0.176 -1.699,0.42 l 36.127,133.73 c 31.857,-8.606 57.647,-23.407 81.009,-46.862 l -97.33,-97.42 z"
           id="path4298" />
        <path
           style="fill:#92ceff"
           inkscape:connector-curvature="0"
           d="m 224.73,226.01 c -7.572,7.374 -17.307,13.052 -28.233,16.004 -0.486,0.131 -0.732,0.17 -1.701,0.42 l 30.219,111.86 c 31.857,-8.606 57.647,-23.407 81.009,-46.862 l -81.3,-81.42 z"
           id="path4300" />
        <path
           style="fill:#6ebeff"
           inkscape:connector-curvature="0"
           d="m 240.78,242.02 c -10.285,10.097 -23.467,17.838 -38.372,21.864 -0.484,0.131 -0.729,0.186 -1.696,0.438 l 24.305,89.969 c 31.857,-8.606 57.647,-23.407 81.009,-46.862 l -65.25,-65.41 z"
           id="path4302" />
        <path
           style="fill:#4aadff"
           inkscape:connector-curvature="0"
           d="m 208.31,285.76 c -0.485,0.132 -0.731,0.185 -1.698,0.439 l 18.396,68.095 c 31.857,-8.606 57.647,-23.407 81.009,-46.862 l -49.444,-49.336 c -13,12.81 -29.38,22.56 -48.27,27.66 z"
           id="path4304" />
        <path
           style="fill:#279eff"
           inkscape:connector-curvature="0"
           d="m 213.98,307.7 c -0.324,0.088 -0.49,0.122 -1.456,0.38 l 12.484,46.215 c 31.857,-8.606 57.647,-23.407 81.009,-46.862 l -33.533,-33.371 c -15.72,15.59 -35.58,27.44 -58.5,33.63 z"
           id="path4306" />
        <path
           style="fill:#0080ff"
           inkscape:connector-curvature="0"
           d="m 219.89,329.57 c -0.325,0.088 -0.491,0.121 -1.457,0.38 l 6.575,24.341 c 31.857,-8.606 57.647,-23.407 81.009,-46.862 l -17.47,-17.385 c -18.43,18.34 -41.75,32.27 -68.65,39.53 z"
           id="path4308" />
      </g>
      <g
         id="g4310">
        <path
           style="fill:#dcdcff"
           inkscape:connector-curvature="0"
           d="m 197.71,185.73 c -0.843,3.153 -2.941,5.768 -5.242,8.083 l 113.97,113.5 c 23.359,-23.456 39.325,-47.987 47.829,-79.98 l -156.56,-41.6 z"
           id="path4312" />
        <path
           style="fill:#b6b6ff"
           inkscape:connector-curvature="0"
           d="m 219.85,191.62 c -2.041,6.976 -5.889,13.329 -11.148,18.372 l 97.727,97.328 c 23.359,-23.456 39.325,-47.987 47.829,-79.98 l -134.41,-35.72 z"
           id="path4314" />
        <path
           style="fill:#9292ff"
           inkscape:connector-curvature="0"
           d="m 241.75,197.44 c -3.064,10.814 -8.936,20.677 -16.995,28.538 l 81.675,81.342 c 23.359,-23.456 39.325,-47.987 47.829,-79.98 l -112.52,-29.9 z"
           id="path4316" />
        <path
           style="fill:#6e6eff"
           inkscape:connector-curvature="0"
           d="m 263.66,203.26 c -4.089,14.652 -11.976,28.037 -22.837,38.716 l 65.61,65.343 c 23.359,-23.456 39.325,-47.987 47.829,-79.98 l -90.6,-24.08 z"
           id="path4318" />
        <path
           style="fill:#4a4aff"
           inkscape:connector-curvature="0"
           d="m 285.56,209.08 c -5.112,18.491 -15.019,35.392 -28.682,48.887 l 49.554,49.352 c 23.359,-23.456 39.325,-47.987 47.829,-79.98 l -68.7,-18.26 z"
           id="path4320" />
        <path
           style="fill:#2727ff"
           inkscape:connector-curvature="0"
           d="m 307.46,214.9 c -6.137,22.329 -18.063,42.745 -34.525,59.06 l 33.496,33.358 c 23.359,-23.456 39.325,-47.987 47.829,-79.98 l -46.81,-12.44 z"
           id="path4322" />
        <path
           style="fill:#0000ff"
           inkscape:connector-curvature="0"
           d="m 329.36,220.72 c -7.161,26.167 -21.104,50.1 -40.368,69.23 l 17.438,17.366 c 23.359,-23.456 39.325,-47.987 47.829,-79.98 l -24.9,-6.62 z"
           id="path4324" />
      </g>
      <g
         id="g4326">
        <path
           style="fill:#ecdcff"
           inkscape:connector-curvature="0"
           d="m 198.44,177.09 c 0.588,2.949 0.342,6.08 -0.624,9.056 l 156.61,41.813 c 8.501,-31.994 8.47,-61.111 -0.136,-92.969 l -155.85,42.1 z"
           id="path4328" />
        <path
           style="fill:#d8b6ff"
           inkscape:connector-curvature="0"
           d="m 220.56,171.12 c 1.57,6.827 1.293,14.228 -0.688,20.901 l 134.56,35.941 c 8.501,-31.994 8.47,-61.111 -0.136,-92.969 l -133.73,36.13 z"
           id="path4330" />
        <path
           style="fill:#c492ff"
           inkscape:connector-curvature="0"
           d="m 242.43,165.21 c 2.612,10.689 2.32,22.245 -0.657,32.643 l 112.65,30.108 c 8.501,-31.994 8.47,-61.111 -0.136,-92.969 l -111.85,30.22 z"
           id="path4332" />
        <path
           style="fill:#b16eff"
           inkscape:connector-curvature="0"
           d="m 264.32,159.29 c 3.655,14.55 3.324,30.265 -0.649,44.388 l 90.754,24.277 c 8.501,-31.994 8.47,-61.111 -0.136,-92.969 l -89.96,24.3 z"
           id="path4334" />
        <path
           style="fill:#9e4aff"
           inkscape:connector-curvature="0"
           d="m 286.2,153.38 c 4.699,18.412 4.345,38.281 -0.625,56.128 l 68.855,18.446 c 8.501,-31.994 8.47,-61.111 -0.136,-92.969 l -68.1,18.39 z"
           id="path4336" />
        <path
           style="fill:#8b27ff"
           inkscape:connector-curvature="0"
           d="m 308.08,147.47 c 6.088,23.216 5.471,46.185 -0.464,67.83 l 46.814,12.655 c 8.501,-31.994 8.47,-61.111 -0.136,-92.969 l -46.21,12.48 z"
           id="path4338" />
        <path
           style="fill:#8000ff"
           inkscape:connector-curvature="0"
           d="m 329.95,141.56 c 7.131,27.078 6.49,54.192 -0.435,79.554 l 24.911,6.84 c 8.501,-31.994 8.47,-61.111 -0.136,-92.969 l -24.34,6.58 z"
           id="path4340" />
      </g>
      <g
         id="g4342">
        <path
           style="fill:#fedcff"
           inkscape:connector-curvature="0"
           d="m 198.09,175.56 c 0.101,0.374 0.377,1.528 0.354,1.534 l 155.85,-42.101 C 345.688,103.135 330.886,77.344 307.432,53.984 l -113.63,113.48 c 1.9,2.11 3.5,5.16 4.29,8.1 z"
           id="path4344" />
        <path
           style="fill:#fdb6ff"
           inkscape:connector-curvature="0"
           d="m 220.14,169.42 c 0.131,0.486 0.176,0.729 0.42,1.699 L 354.29,134.993 C 345.684,103.135 330.883,77.345 307.428,53.984 l -97.479,97.275 c 4.61,4.84 8.32,11.25 10.19,18.16 z"
           id="path4346" />
        <path
           style="fill:#fc92ff"
           inkscape:connector-curvature="0"
           d="m 242.01,163.51 c 0.131,0.484 0.169,0.729 0.419,1.697 l 111.86,-30.218 C 345.683,103.131 330.881,77.34 307.427,53.98 l -81.486,81.231 c 7.34,7.56 13.13,17.41 16.07,28.3 z"
           id="path4348" />
        <path
           style="fill:#fb6eff"
           inkscape:connector-curvature="0"
           d="m 263.89,157.6 c 0.13,0.484 0.185,0.725 0.438,1.692 l 89.969,-24.304 C 345.691,103.13 330.889,77.339 307.435,53.979 l -65.48,65.173 c 10.06,10.28 17.91,23.57 21.93,38.45 z"
           id="path4350" />
        <path
           style="fill:#fa4aff"
           inkscape:connector-curvature="0"
           d="m 285.76,151.69 c 0.131,0.483 0.183,0.724 0.438,1.69 l 68.095,-18.395 C 345.687,103.127 330.885,77.336 307.431,53.976 l -49.482,49.121 c 12.79,13 22.71,29.74 27.8,48.6 z"
           id="path4352" />
        <path
           style="fill:#f927ff"
           inkscape:connector-curvature="0"
           d="m 307.7,146.03 c 0.087,0.321 0.12,0.48 0.378,1.447 l 46.215,-12.484 C 345.687,103.135 330.885,77.344 307.431,53.984 l -33.484,33.07 c 15.59,15.719 27.55,36.039 33.74,58.969 z"
           id="path4354" />
        <path
           style="fill:#ff00ff"
           inkscape:connector-curvature="0"
           d="m 329.58,140.12 c 0.086,0.321 0.118,0.48 0.377,1.446 l 24.341,-6.575 C 345.692,103.133 330.778,76.93 307.324,53.57 l -17.375,17.432 c 18.32,18.435 32.35,42.199 39.62,69.109 z"
           id="path4356" />
      </g>
    </g>
    <g
       id="g4616"
       transform="translate(-57.970255,63.123167)"
       inkscape:export-xdpi="43.200001"
       inkscape:export-ydpi="43.200001">
      <rect
         style="opacity:1;fill:#ff8000;fill-opacity:1;stroke:#ffff00;stroke-width:0.01009581;stroke-linecap:round;stroke-linejoin:round;stroke-miterlimit:4;stroke-dasharray:none;stroke-dashoffset:0;stroke-opacity:1"
         id="rect4149"
         width="299.9899"
         height="299.9899"
         x="81.158401"
         y="-55.34663"
         ry="0" />
      <g
         transform="translate(45.712294,-102.17595)"
         style="fill:#ffffff"
         id="g4578">
        <g
           style="font-style:normal;font-variant:normal;font-weight:900;font-stretch:normal;font-size:303.03030396px;line-height:0%;font-family:Optien;-inkscape-font-specification:'Optien Heavy';text-align:center;letter-spacing:0px;word-spacing:0px;text-anchor:middle;fill:#ffffff;fill-opacity:1;stroke:none;stroke-width:1px;stroke-linecap:butt;stroke-linejoin:miter;stroke-opacity:1"
           id="text4171">
          <path
             style="fill:#ffffff"
             d="m 174.98651,88.003781 q 19.69697,0 36.9697,7.575757 17.57575,7.575762 30.30303,20.606062 13.0303,12.72727 20.60606,30.30303 7.57576,17.27273 7.57576,36.9697 0,19.69697 -7.57576,36.96969 -7.27273,17.27273 -20.30303,30.30303 -12.72728,13.03031 -30,20.60606 -17.27273,7.57576 -36.9697,7.57576 l -55.15152,0 0,-38.48485 54.84849,0 q 11.81818,0 22.12121,-4.54545 10.30303,-4.54546 17.87879,-12.12121 7.87879,-7.87879 12.42424,-18.18182 4.54546,-10.30303 4.54546,-22.12121 0,-11.81819 -4.54546,-22.12122 -4.54545,-10.30303 -12.42424,-17.87878 -7.57576,-7.87879 -17.87879,-12.42425 -10.30303,-4.54545 -22.12121,-4.54545 l -54.84849,0 0,-38.484849 54.54546,0 0,0 z"
             id="path4573"
             inkscape:connector-curvature="0" />
        </g>
        <g
           style="font-style:normal;font-variant:normal;font-weight:900;font-stretch:normal;font-size:124.77765656px;line-height:0%;font-family:Optien;-inkscape-font-specification:'Optien Heavy';text-align:center;letter-spacing:0px;word-spacing:0px;text-anchor:middle;fill:#ffffff;fill-opacity:1;stroke:none;stroke-width:1px;stroke-linecap:butt;stroke-linejoin:miter;stroke-opacity:1"
           id="text4175">
          <path
             style="fill:#ffffff"
             d="m 187.82098,144.15335 15.97154,0 0,54.02873 q 0,5.11588 -1.99644,9.60788 -1.99644,4.49199 -5.36544,7.86099 -3.36899,3.24422 -7.86099,5.24066 -4.492,1.87167 -9.60788,1.87167 -4.86633,0 -9.23355,-1.74689 -4.24244,-1.74689 -7.61143,-4.86633 -3.24422,3.11944 -7.61144,4.86633 -4.36722,1.74689 -9.23355,1.74689 -5.11588,0 -9.60788,-1.87167 -4.49199,-1.99644 -7.86099,-5.24066 -3.369,-3.369 -5.36544,-7.86099 -1.99644,-4.492 -1.99644,-9.60788 l 0,-54.02873 15.97154,0 0,55.02695 q 0.49911,3.24422 2.99466,5.49021 2.49556,2.246 5.86455,2.246 3.49378,0 5.98933,-2.246 2.49555,-2.37077 2.86989,-5.73977 l 0,-54.77739 15.97154,0 0,53.90395 q 0.12477,3.61855 2.62033,6.23888 2.62033,2.62033 6.36366,2.62033 3.24422,0 5.61499,-2.12122 2.49556,-2.12122 3.11944,-5.36544 l 0,-55.2765 z"
             id="path4576"
             inkscape:connector-curvature="0" />
        </g>
      </g>
      <rect
         y="214.65337"
         x="81.158401"
         height="29.98991"
         width="299.9899"
         id="rect4598"
         style="opacity:1;fill:#0080ff;fill-opacity:1;stroke:#ff8c24;stroke-width:0.01008994;stroke-linecap:round;stroke-linejoin:round;stroke-miterlimit:4;stroke-dasharray:none;stroke-dashoffset:0;stroke-opacity:1" />
    </g>
    <g
       id="g4664"
       transform="matrix(1.0040256,0,0,0.99999995,-1.5505657,1.4206995e-5)"
       inkscape:export-xdpi="180"
       inkscape:export-ydpi="180">
      <rect
         ry="0"
         y="19.724033"
         x="385.17654"
         height="479.98682"
         width="318.70377"
         id="rect4627"
         style="opacity:1;fill:#ff8000;fill-opacity:1;stroke:#ffff00;stroke-width:0.01316263;stroke-linecap:round;stroke-linejoin:round;stroke-miterlimit:4;stroke-dasharray:none;stroke-dashoffset:0;stroke-opacity:1" />
      <g
         id="g4629"
         style="fill:#ffffff"
         transform="matrix(0.99599043,0,0,1,361.82289,62.89317)">
        <g
           id="g4631"
           style="font-style:normal;font-variant:normal;font-weight:900;font-stretch:normal;font-size:303.03030396px;line-height:0%;font-family:Optien;-inkscape-font-specification:'Optien Heavy';text-align:center;letter-spacing:0px;word-spacing:0px;text-anchor:middle;fill:#ffffff;fill-opacity:1;stroke:none;stroke-width:1px;stroke-linecap:butt;stroke-linejoin:miter;stroke-opacity:1">
          <path
             inkscape:connector-curvature="0"
             id="path4633"
             d="m 174.98651,88.003781 q 19.69697,0 36.9697,7.575757 17.57575,7.575762 30.30303,20.606062 13.0303,12.72727 20.60606,30.30303 7.57576,17.27273 7.57576,36.9697 0,19.69697 -7.57576,36.96969 -7.27273,17.27273 -20.30303,30.30303 -12.72728,13.03031 -30,20.60606 -17.27273,7.57576 -36.9697,7.57576 l -55.15152,0 0,-38.48485 54.84849,0 q 11.81818,0 22.12121,-4.54545 10.30303,-4.54546 17.87879,-12.12121 7.87879,-7.87879 12.42424,-18.18182 4.54546,-10.30303 4.54546,-22.12121 0,-11.81819 -4.54546,-22.12122 -4.54545,-10.30303 -12.42424,-17.87878 -7.57576,-7.87879 -17.87879,-12.42425 -10.30303,-4.54545 -22.12121,-4.54545 l -54.84849,0 0,-38.484849 54.54546,0 0,0 z"
             style="fill:#ffffff" />
        </g>
        <g
           id="g4635"
           style="font-style:normal;font-variant:normal;font-weight:900;font-stretch:normal;font-size:124.77765656px;line-height:0%;font-family:Optien;-inkscape-font-specification:'Optien Heavy';text-align:center;letter-spacing:0px;word-spacing:0px;text-anchor:middle;fill:#ffffff;fill-opacity:1;stroke:none;stroke-width:1px;stroke-linecap:butt;stroke-linejoin:miter;stroke-opacity:1">
          <path
             inkscape:connector-curvature="0"
             id="path4637"
             d="m 187.82098,144.15335 15.97154,0 0,54.02873 q 0,5.11588 -1.99644,9.60788 -1.99644,4.49199 -5.36544,7.86099 -3.36899,3.24422 -7.86099,5.24066 -4.492,1.87167 -9.60788,1.87167 -4.86633,0 -9.23355,-1.74689 -4.24244,-1.74689 -7.61143,-4.86633 -3.24422,3.11944 -7.61144,4.86633 -4.36722,1.74689 -9.23355,1.74689 -5.11588,0 -9.60788,-1.87167 -4.49199,-1.99644 -7.86099,-5.24066 -3.369,-3.369 -5.36544,-7.86099 -1.99644,-4.492 -1.99644,-9.60788 l 0,-54.02873 15.97154,0 0,55.02695 q 0.49911,3.24422 2.99466,5.49021 2.49556,2.246 5.86455,2.246 3.49378,0 5.98933,-2.246 2.49555,-2.37077 2.86989,-5.73977 l 0,-54.77739 15.97154,0 0,53.90395 q 0.12477,3.61855 2.62033,6.23888 2.62033,2.62033 6.36366,2.62033 3.24422,0 5.61499,-2.12122 2.49556,-2.12122 3.11944,-5.36544 l 0,-55.2765 z"
             style="fill:#ffffff" />
        </g>
      </g>
      <rect
         style="opacity:1;fill:#0080ff;fill-opacity:1;stroke:#ff8c24;stroke-width:0.01039988;stroke-linecap:round;stroke-linejoin:round;stroke-miterlimit:4;stroke-dasharray:none;stroke-dashoffset:0;stroke-opacity:1"
         id="rect4639"
         width="318.70657"
         height="29.98958"
         x="385.17517"
         y="469.72266" />
    </g>
    <g
       id="g4716"
       transform="matrix(0,-0.38647068,0.28985315,0,60.856373,1111.5935)"
       inkscape:export-xdpi="135"
       inkscape:export-ydpi="135">
      <rect
         transform="scale(-1,-1)"
         style="opacity:1;fill:#ff8000;fill-opacity:1;stroke:#ffff00;stroke-width:0.05572928;stroke-linecap:round;stroke-linejoin:round;stroke-miterlimit:4;stroke-dasharray:none;stroke-dashoffset:0;stroke-opacity:1"
         id="rect4675"
         width="1241.9606"
         height="2207.9548"
         x="-1229.0925"
         y="-2341.5193"
         ry="0" />
      <rect
         y="2224.9473"
         x="-12.87561"
         height="116.57977"
         width="1241.9757"
         id="rect4687"
         style="opacity:1;fill:#0080ff;fill-opacity:1;stroke:#ff8c24;stroke-width:0.04047769;stroke-linecap:round;stroke-linejoin:round;stroke-miterlimit:4;stroke-dasharray:none;stroke-dashoffset:0;stroke-opacity:1" />
    </g>
    <g
       id="g4677"
       style="fill:#ffffff"
       transform="matrix(1.5419523,0,0,1.5443527,118.20102,593.25159)"
       inkscape:export-xdpi="135"
       inkscape:export-ydpi="135">
      <g
         id="g4679"
         style="font-style:normal;font-variant:normal;font-weight:900;font-stretch:normal;font-size:303.03030396px;line-height:0%;font-family:Optien;-inkscape-font-specification:'Optien Heavy';text-align:center;letter-spacing:0px;word-spacing:0px;text-anchor:middle;fill:#ffffff;fill-opacity:1;stroke:none;stroke-width:1px;stroke-linecap:butt;stroke-linejoin:miter;stroke-opacity:1">
        <path
           inkscape:connector-curvature="0"
           id="path4681"
           d="m 174.98651,88.003781 q 19.69697,0 36.9697,7.575757 17.57575,7.575762 30.30303,20.606062 13.0303,12.72727 20.60606,30.30303 7.57576,17.27273 7.57576,36.9697 0,19.69697 -7.57576,36.96969 -7.27273,17.27273 -20.30303,30.30303 -12.72728,13.03031 -30,20.60606 -17.27273,7.57576 -36.9697,7.57576 l -55.15152,0 0,-38.48485 54.84849,0 q 11.81818,0 22.12121,-4.54545 10.30303,-4.54546 17.87879,-12.12121 7.87879,-7.87879 12.42424,-18.18182 4.54546,-10.30303 4.54546,-22.12121 0,-11.81819 -4.54546,-22.12122 -4.54545,-10.30303 -12.42424,-17.87878 -7.57576,-7.87879 -17.87879,-12.42425 -10.30303,-4.54545 -22.12121,-4.54545 l -54.84849,0 0,-38.484849 54.54546,0 0,0 z"
           style="fill:#ffffff" />
      </g>
      <g
         id="g4683"
         style="font-style:normal;font-variant:normal;font-weight:900;font-stretch:normal;font-size:124.77765656px;line-height:0%;font-family:Optien;-inkscape-font-specification:'Optien Heavy';text-align:center;letter-spacing:0px;word-spacing:0px;text-anchor:middle;fill:#ffffff;fill-opacity:1;stroke:none;stroke-width:1px;stroke-linecap:butt;stroke-linejoin:miter;stroke-opacity:1">
        <path
           inkscape:connector-curvature="0"
           id="path4685"
           d="m 187.82098,144.15335 15.97154,0 0,54.02873 q 0,5.11588 -1.99644,9.60788 -1.99644,4.49199 -5.36544,7.86099 -3.36899,3.24422 -7.86099,5.24066 -4.492,1.87167 -9.60788,1.87167 -4.86633,0 -9.23355,-1.74689 -4.24244,-1.74689 -7.61143,-4.86633 -3.24422,3.11944 -7.61144,4.86633 -4.36722,1.74689 -9.23355,1.74689 -5.11588,0 -9.60788,-1.87167 -4.49199,-1.99644 -7.86099,-5.24066 -3.369,-3.369 -5.36544,-7.86099 -1.99644,-4.492 -1.99644,-9.60788 l 0,-54.02873 15.97154,0 0,55.02695 q 0.49911,3.24422 2.99466,5.49021 2.49556,2.246 5.86455,2.246 3.49378,0 5.98933,-2.246 2.49555,-2.37077 2.86989,-5.73977 l 0,-54.77739 15.97154,0 0,53.90395 q 0.12477,3.61855 2.62033,6.23888 2.62033,2.62033 6.36366,2.62033 3.24422,0 5.61499,-2.12122 2.49556,-2.12122 3.11944,-5.36544 l 0,-55.2765 z"
           style="fill:#ffffff" />
      </g>
    </g>
    <g
       id="g4314"
       inkscape:export-xdpi="90"
       inkscape:export-ydpi="90">
      <rect
         ry="55.032707"
         y="-8.9000406"
         x="763.62823"
         height="299.9899"
         width="299.9899"
         id="rect4293"
         style="opacity:1;fill:#ff8000;fill-opacity:1;stroke:#ffff00;stroke-width:0.01009581;stroke-linecap:round;stroke-linejoin:round;stroke-miterlimit:4;stroke-dasharray:none;stroke-dashoffset:0;stroke-opacity:1" />
      <g
         id="g4295"
         style="fill:#ffffff"
         transform="translate(728.1821,-42.363417)">
        <g
           id="g4297"
           style="font-style:normal;font-variant:normal;font-weight:900;font-stretch:normal;font-size:303.03030396px;line-height:0%;font-family:Optien;-inkscape-font-specification:'Optien Heavy';text-align:center;letter-spacing:0px;word-spacing:0px;text-anchor:middle;fill:#ffffff;fill-opacity:1;stroke:none;stroke-width:1px;stroke-linecap:butt;stroke-linejoin:miter;stroke-opacity:1">
          <path
             inkscape:connector-curvature="0"
             id="path4299"
             d="m 174.98651,88.003781 q 19.69697,0 36.9697,7.575757 17.57575,7.575762 30.30303,20.606062 13.0303,12.72727 20.60606,30.30303 7.57576,17.27273 7.57576,36.9697 0,19.69697 -7.57576,36.96969 -7.27273,17.27273 -20.30303,30.30303 -12.72728,13.03031 -30,20.60606 -17.27273,7.57576 -36.9697,7.57576 l -55.15152,0 0,-38.48485 54.84849,0 q 11.81818,0 22.12121,-4.54545 10.30303,-4.54546 17.87879,-12.12121 7.87879,-7.87879 12.42424,-18.18182 4.54546,-10.30303 4.54546,-22.12121 0,-11.81819 -4.54546,-22.12122 -4.54545,-10.30303 -12.42424,-17.87878 -7.57576,-7.87879 -17.87879,-12.42425 -10.30303,-4.54545 -22.12121,-4.54545 l -54.84849,0 0,-38.484849 54.54546,0 0,0 z"
             style="fill:#ffffff" />
        </g>
        <g
           id="g4301"
           style="font-style:normal;font-variant:normal;font-weight:900;font-stretch:normal;font-size:124.77765656px;line-height:0%;font-family:Optien;-inkscape-font-specification:'Optien Heavy';text-align:center;letter-spacing:0px;word-spacing:0px;text-anchor:middle;fill:#ffffff;fill-opacity:1;stroke:none;stroke-width:1px;stroke-linecap:butt;stroke-linejoin:miter;stroke-opacity:1">
          <path
             inkscape:connector-curvature="0"
             id="path4303"
             d="m 187.82098,144.15335 15.97154,0 0,54.02873 q 0,5.11588 -1.99644,9.60788 -1.99644,4.49199 -5.36544,7.86099 -3.36899,3.24422 -7.86099,5.24066 -4.492,1.87167 -9.60788,1.87167 -4.86633,0 -9.23355,-1.74689 -4.24244,-1.74689 -7.61143,-4.86633 -3.24422,3.11944 -7.61144,4.86633 -4.36722,1.74689 -9.23355,1.74689 -5.11588,0 -9.60788,-1.87167 -4.49199,-1.99644 -7.86099,-5.24066 -3.369,-3.369 -5.36544,-7.86099 -1.99644,-4.492 -1.99644,-9.60788 l 0,-54.02873 15.97154,0 0,55.02695 q 0.49911,3.24422 2.99466,5.49021 2.49556,2.246 5.86455,2.246 3.49378,0 5.98933,-2.246 2.49555,-2.37077 2.86989,-5.73977 l 0,-54.77739 15.97154,0 0,53.90395 q 0.12477,3.61855 2.62033,6.23888 2.62033,2.62033 6.36366,2.62033 3.24422,0 5.61499,-2.12122 2.49556,-2.12122 3.11944,-5.36544 l 0,-55.2765 z"
             style="fill:#ffffff" />
        </g>
      </g>
    </g>
    <g
       id="g1134">
      <rect
         inkscape:export-ydpi="348"
         inkscape:export-xdpi="348"
         inkscape:export-filename="D:\dealwish\flutter\dealwish\images\fundo.png"
         style="opacity:1;fill:#ffffff;fill-opacity:1;stroke:#000000;stroke-width:0.0131891;stroke-linecap:round;stroke-linejoin:round;stroke-miterlimit:4;stroke-dasharray:none;stroke-dashoffset:0;stroke-opacity:1"
         id="rect1105"
         width="319.98672"
         height="479.98679"
         x="-474.70953"
         y="585.68542"
         ry="0" />
      <g
         inkscape:export-ydpi="348"
         inkscape:export-xdpi="348"
         inkscape:export-filename="D:\dealwish\flutter\dealwish\images\fundo.png"
         transform="matrix(1.1388576,-1.2471529,1.2442403,1.1415236,-770.98937,940.95404)"
         style="fill:#ececec"
         id="g1115">
        <g
           style="font-style:normal;font-variant:normal;font-weight:900;font-stretch:normal;font-size:303.03030396px;line-height:0%;font-family:Optien;-inkscape-font-specification:'Optien Heavy';text-align:center;letter-spacing:0px;word-spacing:0px;text-anchor:middle;fill:#ececec;fill-opacity:1;stroke:none;stroke-width:1px;stroke-linecap:butt;stroke-linejoin:miter;stroke-opacity:1"
           id="g1109">
          <path
             style="fill:#ececec"
             d="m 174.98651,88.003781 q 19.69697,0 36.9697,7.575757 17.57575,7.575762 30.30303,20.606062 13.0303,12.72727 20.60606,30.30303 7.57576,17.27273 7.57576,36.9697 0,19.69697 -7.57576,36.96969 -7.27273,17.27273 -20.30303,30.30303 -12.72728,13.03031 -30,20.60606 -17.27273,7.57576 -36.9697,7.57576 h -55.15152 v -38.48485 h 54.84849 q 11.81818,0 22.12121,-4.54545 10.30303,-4.54546 17.87879,-12.12121 7.87879,-7.87879 12.42424,-18.18182 4.54546,-10.30303 4.54546,-22.12121 0,-11.81819 -4.54546,-22.12122 -4.54545,-10.30303 -12.42424,-17.87878 -7.57576,-7.87879 -17.87879,-12.42425 -10.30303,-4.54545 -22.12121,-4.54545 H 120.44105 V 88.003781 Z"
             id="path1107"
             inkscape:connector-curvature="0" />
        </g>
        <g
           style="font-style:normal;font-variant:normal;font-weight:900;font-stretch:normal;font-size:124.77765656px;line-height:0%;font-family:Optien;-inkscape-font-specification:'Optien Heavy';text-align:center;letter-spacing:0px;word-spacing:0px;text-anchor:middle;fill:#ececec;fill-opacity:1;stroke:none;stroke-width:1px;stroke-linecap:butt;stroke-linejoin:miter;stroke-opacity:1"
           id="g1113">
          <path
             style="fill:#ececec"
             d="m 187.82098,144.15335 h 15.97154 v 54.02873 q 0,5.11588 -1.99644,9.60788 -1.99644,4.49199 -5.36544,7.86099 -3.36899,3.24422 -7.86099,5.24066 -4.492,1.87167 -9.60788,1.87167 -4.86633,0 -9.23355,-1.74689 -4.24244,-1.74689 -7.61143,-4.86633 -3.24422,3.11944 -7.61144,4.86633 -4.36722,1.74689 -9.23355,1.74689 -5.11588,0 -9.60788,-1.87167 -4.49199,-1.99644 -7.86099,-5.24066 -3.369,-3.369 -5.36544,-7.86099 -1.99644,-4.492 -1.99644,-9.60788 v -54.02873 h 15.97154 v 55.02695 q 0.49911,3.24422 2.99466,5.49021 2.49556,2.246 5.86455,2.246 3.49378,0 5.98933,-2.246 2.49555,-2.37077 2.86989,-5.73977 v -54.77739 h 15.97154 v 53.90395 q 0.12477,3.61855 2.62033,6.23888 2.62033,2.62033 6.36366,2.62033 3.24422,0 5.61499,-2.12122 2.49556,-2.12122 3.11944,-5.36544 z"
             id="path1111"
             inkscape:connector-curvature="0" />
        </g>
      </g>
    </g>
  </g>
</svg>
